# xmcd CD database file
#
# Track frame offsets:
#	150
#	30545
#	57520
#	85857
#	136075
#	172090
#	216700
#	237135
#	258907
#	281795
#
# Disc length: 3917 seconds
#
# Revision: 0
# Processed by: cddbd v1.5.1PL0 Copyright (c) Steve Scherf et al.
# Submitted via: CDex 1.51
#
DISCID=930f4b0a
DTITLE=Various Artist - Swingjournal READERS REQUEST  Prestige Best
DYEAR=2000
DGENRE=Jazz
TTITLE0=St.Thomas/SONNY ROLLINS
TTITLE1=My Funny Valentine/MILES DAVIS
TTITLE2=Violets for Your Funs/JHON COLTRANE
TTITLE3=Bag'sGroove(take 1)/MILES DAVIS
TTITLE4=Softly,as in a Morning Sunrise/THE MODERN JAZZ QUARTET
TTITLE5=Sentimental Journey/JACKIE McLEAN
TTITLE6=Smoke Gets in Your Eyes/THELONIOUS MONK
TTITLE7=Golden Earrings/RAY BRYANT
TTITLE8=My Ideal/KENNY DORHAM
TTITLE9=On a Slow Boat to China/SONNY ROLLINS
EXTD=YEAR: 2000
EXTT0=
EXTT1=
EXTT2=
EXTT3=
EXTT4=
EXTT5=
EXTT6=
EXTT7=
EXTT8=
EXTT9=
PLAYORDER=
